<svg width="32" height="32" viewBox="0 0 32 32" fill="none" xmlns="http://www.w3.org/2000/svg">
<path d="M14.79 20.29C15.18 20.68 15.81 20.68 16.2 20.29L19.79 16.7C20.18 16.31 20.18 15.68 19.79 15.29L16.2 11.7C15.81 11.31 15.18 11.31 14.79 11.7C14.4 12.09 14.4 12.72 14.79 13.11L16.67 15H8C7.45 15 7 15.45 7 16C7 16.55 7.45 17 8 17H16.67L14.79 18.88C14.4 19.27 14.41 19.91 14.79 20.29ZM23 7H9C7.89 7 7 7.9 7 9V12C7 12.55 7.45 13 8 13C8.55 13 9 12.55 9 12V10C9 9.45 9.45 9 10 9H22C22.55 9 23 9.45 23 10V22C23 22.55 22.55 23 22 23H10C9.45 23 9 22.55 9 22V20C9 19.45 8.55 19 8 19C7.45 19 7 19.45 7 20V23C7 24.1 7.9 25 9 25H23C24.1 25 25 24.1 25 23V9C25 7.9 24.1 7 23 7Z" fill="#373745"/>
</svg>
