<svg width="72" height="16" viewBox="0 0 72 16" fill="none" xmlns="http://www.w3.org/2000/svg">
<path fill-rule="evenodd" clip-rule="evenodd" d="M21.5 8C21.5 5.23858 23.7386 3 26.5 3C29.2614 3 31.5 5.23858 31.5 8C31.5 10.7614 29.2614 13 26.5 13C23.7386 13 21.5 10.7614 21.5 8ZM26.5 0C22.0817 0 18.5 3.58172 18.5 8C18.5 12.4183 22.0817 16 26.5 16C30.9183 16 34.5 12.4183 34.5 8C34.5 3.58172 30.9183 0 26.5 0ZM13.0424 0.519089C13.7196 -0.158094 14.8149 -0.158094 15.4921 0.519089C16.1581 1.18507 16.1581 2.29161 15.4921 2.95759L10.8848 7.56486C10.6445 7.80518 10.6445 8.19482 10.8848 8.43514L15.4921 13.0424C16.1693 13.7196 16.1693 14.8149 15.4921 15.4921C14.8149 16.1693 13.7196 16.1693 13.0424 15.4921L8.43514 10.8848C8.19482 10.6445 7.80518 10.6445 7.56486 10.8848L2.95759 15.4921C2.28041 16.1693 1.18507 16.1693 0.507887 15.4921C-0.169296 14.8149 -0.169296 13.7196 0.507887 13.0424L5.11516 8.43514C5.35548 8.19482 5.35548 7.80518 5.11516 7.56486L0.507887 2.95759C-0.169296 2.28041 -0.169296 1.18507 0.507887 0.507887C1.18507 -0.169296 2.28041 -0.169296 2.95759 0.507887L7.56575 5.11605C7.8059 5.35619 8.1952 5.35639 8.43559 5.11649L13.0424 0.519089ZM52.4921 0.519089C51.8149 -0.158094 50.7196 -0.158094 50.0424 0.519089L45.4356 5.11649C45.1952 5.35639 44.8059 5.35619 44.5658 5.11605L39.9576 0.507887C39.2804 -0.169296 38.1851 -0.169296 37.5079 0.507887C36.8307 1.18507 36.8307 2.28041 37.5079 2.95759L42.1152 7.56486C42.3555 7.80518 42.3555 8.19482 42.1152 8.43514L37.5079 13.0424C36.8307 13.7196 36.8307 14.8149 37.5079 15.4921C38.1851 16.1693 39.2804 16.1693 39.9576 15.4921L44.5649 10.8848C44.8052 10.6445 45.1948 10.6445 45.4351 10.8848L50.0424 15.4921C50.7196 16.1693 51.8149 16.1693 52.4921 15.4921C53.1693 14.8149 53.1693 13.7196 52.4921 13.0424L47.8848 8.43514C47.6445 8.19482 47.6445 7.80518 47.8848 7.56486L52.4921 2.95759C53.1581 2.29161 53.1581 1.18507 52.4921 0.519089ZM58.5 8C58.5 5.23858 60.7386 3 63.5 3C66.2614 3 68.5 5.23858 68.5 8C68.5 10.7614 66.2614 13 63.5 13C60.7386 13 58.5 10.7614 58.5 8ZM63.5 0C59.0817 0 55.5 3.58172 55.5 8C55.5 12.4183 59.0817 16 63.5 16C67.9183 16 71.5 12.4183 71.5 8C71.5 3.58172 67.9183 0 63.5 0Z" fill="url(#paint0_radial_5041_56)"/>
<defs>
<radialGradient id="paint0_radial_5041_56" cx="0" cy="0" r="1" gradientUnits="userSpaceOnUse" gradientTransform="translate(35.75 8) rotate(90) scale(8 35.75)">
<stop stop-color="#EB0057"/>
<stop offset="1" stop-color="#E38BAC"/>
</radialGradient>
</defs>
</svg>
