<svg width="26" height="26" viewBox="0 0 26 26" fill="none" xmlns="http://www.w3.org/2000/svg">
<g filter="url(#filter0_i_17_179)">
<path d="M25.1747 0.843519C24.0743 -0.256903 22.2943 -0.256903 21.1939 0.843519L13.7078 8.3143C13.3172 8.70414 12.6846 8.70382 12.2943 8.31357L4.80608 0.825316C3.70566 -0.275105 1.92574 -0.275105 0.825316 0.825316C-0.275105 1.92574 -0.275105 3.70566 0.825316 4.80608L8.31213 12.2929C8.70265 12.6834 8.70265 13.3166 8.31213 13.7071L0.825317 21.1939C-0.275105 22.2943 -0.275105 24.0743 0.825316 25.1747C1.92574 26.2751 3.70566 26.2751 4.80608 25.1747L12.2929 17.6879C12.6834 17.2973 13.3166 17.2973 13.7071 17.6879L21.1939 25.1747C22.2943 26.2751 24.0743 26.2751 25.1747 25.1747C26.2751 24.0743 26.2751 22.2943 25.1747 21.1939L17.6879 13.7071C17.2973 13.3166 17.2973 12.6834 17.6879 12.2929L25.1747 4.80608C26.2569 3.72386 26.2569 1.92574 25.1747 0.843519Z" fill="#60C2AA"/>
</g>
<defs>
<filter id="filter0_i_17_179" x="0" y="0" width="27" height="28" filterUnits="userSpaceOnUse" color-interpolation-filters="sRGB">
<feFlood flood-opacity="0" result="BackgroundImageFix"/>
<feBlend mode="normal" in="SourceGraphic" in2="BackgroundImageFix" result="shape"/>
<feColorMatrix in="SourceAlpha" type="matrix" values="0 0 0 0 0 0 0 0 0 0 0 0 0 0 0 0 0 0 127 0" result="hardAlpha"/>
<feOffset dx="1" dy="2"/>
<feGaussianBlur stdDeviation="1"/>
<feComposite in2="hardAlpha" operator="arithmetic" k2="-1" k3="1"/>
<feColorMatrix type="matrix" values="0 0 0 0 0.311889 0 0 0 0 0.612384 0 0 0 0 0.54168 0 0 0 0.6 0"/>
<feBlend mode="normal" in2="shape" result="effect1_innerShadow_17_179"/>
</filter>
</defs>
</svg>
