<svg xmlns="http://www.w3.org/2000/svg" viewBox="0 27.056074142456055 511.99591064453125 457.887939453125"><g><path fill="#4a80aa" d="M121.186 61.893v391.198c0 9.292-7.531 16.823-16.823 16.823H71.964c-9.292 0-16.833-7.531-16.833-16.823V61.893c0-9.292 7.541-16.833 16.833-16.833h32.399c9.292 0 16.823 7.541 16.823 16.833z" opacity="1" data-original="#4a80aa" class=""/><path fill="#407093" d="M55.131 273.634h66.055v68.98H55.131z" opacity="1" data-original="#407093" class=""/><path fill="#407093" d="M98.101 469.91H71.965c-9.292 0-16.833-7.531-16.833-16.823V61.889c0-9.292 7.541-16.833 16.833-16.833H98.1c-9.292 0-16.823 7.541-16.823 16.833v391.198c.001 9.293 7.532 16.823 16.824 16.823z" opacity="1" data-original="#407093" class=""/><path fill="#4a80aa" d="M456.865 61.893v391.198c0 9.292-7.531 16.823-16.823 16.823h-32.399c-9.292 0-16.833-7.531-16.833-16.823V61.893c0-9.292 7.541-16.833 16.833-16.833h32.399c9.293 0 16.823 7.541 16.823 16.833z" opacity="1" data-original="#4a80aa" class=""/><path fill="#407093" d="M390.81 273.634h66.055v68.98H390.81z" opacity="1" data-original="#407093" class=""/><path fill="#407093" d="M433.78 469.91h-26.135c-9.292 0-16.833-7.531-16.833-16.823V61.889c0-9.292 7.541-16.833 16.833-16.833h26.135c-9.292 0-16.823 7.541-16.823 16.833v391.198c0 9.293 7.531 16.823 16.823 16.823z" opacity="1" data-original="#407093" class=""/><path fill="#e28086" d="M509.301 139.637v105.047c0 28.959-23.478 52.437-52.436 52.437h-37.437l-23.63-21.914-45.464 21.914H228.968l-17.241-21.26-51.863 21.26H55.135a52.163 52.163 0 0 1-15.309-2.277c-10.745-3.271-.041-38.881-6.637-47.649s-30.491 9.306-30.491-2.51V139.637c0-28.958 23.478-52.436 52.436-52.436h37.437l16.363 24.936 52.731-24.936h121.366l19.402 18.401 49.702-18.401h104.728c5.326 0 10.467.793 15.309 2.277 12.308 3.746 3.127 26.31 9.757 37.036 4.947 8.002 27.372 3.026 27.372 13.123z" opacity="1" data-original="#e28086" class=""/><path fill="#dd636e" d="M100.425 297.114H55.133a52.416 52.416 0 0 1-15.306-2.27c-16.578-16.578-7.291-38.173-7.291-61.808l-29.832 7.323V139.631c0-28.947 23.482-52.429 52.429-52.429h45.293c-28.963 0-52.429 23.482-52.429 52.429v105.054c0 28.963 23.466 52.429 52.428 52.429z" opacity="1" data-original="#dd636e"/><path fill="#f9f6f9" d="M161.666 87.201 54.455 269.914l-14.629 24.93c-21.49-6.541-37.128-26.527-37.128-50.159v-4.326l45.297-77.192L92.191 87.85l.381-.649zM352.137 87.201l-123.169 209.92h-69.105l123.169-209.92zM509.301 139.637v4.326L419.428 297.12h-69.094l121.84-207.643c21.489 6.542 37.127 26.528 37.127 50.16z" opacity="1" data-original="#f9f6f9"/><path fill="#dddaec" d="M47.996 244.685c0 9.148 2.338 17.75 6.459 25.229l-14.629 24.93c-21.49-6.541-37.128-26.527-37.128-50.159v-4.326l45.297-77.192v81.518zM100.422 87.201a51.56 51.56 0 0 0-8.231.649l.381-.649z" opacity="1" data-original="#dddaec" class=""/><path fill="#a2e19f" d="M0 460.329c0-24.551 19.902-44.453 44.453-44.453 19.788 0 36.548 12.933 42.309 30.805 5.761-17.872 22.521-30.805 42.309-30.805s36.548 12.933 42.309 30.805c5.761-17.872 22.521-30.805 42.309-30.805s36.548 12.933 42.309 30.805c5.761-17.872 22.521-30.805 42.309-30.805s36.548 12.933 42.309 30.805c5.761-17.872 22.521-30.805 42.309-30.805s36.548 12.933 42.309 30.805c5.761-17.872 22.521-30.805 42.309-30.805 24.551 0 44.453 19.902 44.453 44.453v24.615H0z" opacity="1" data-original="#a2e19f"/><path fill="#97cf92" d="M149.952 421.069c-14.031 7.488-23.582 22.255-23.582 39.268v24.607H0v-24.607c0-24.554 19.903-44.458 44.458-44.458 19.785 0 36.549 12.941 42.303 30.808 5.767-17.867 22.518-30.808 42.316-30.808a44.34 44.34 0 0 1 20.875 5.19z" opacity="1" data-original="#97cf92"/><path fill="#ffe07d" d="m229.563 42.324-70.488 122.089c-11.75 20.352 2.938 45.791 26.437 45.791h140.976c23.5 0 38.187-25.439 26.437-45.791L282.437 42.324c-11.75-20.352-41.124-20.352-52.874 0z" opacity="1" data-original="#ffe07d" class=""/><path fill="#f1cb86" d="M268.514 29.704c-5.563 2.472-10.498 6.676-13.928 12.62L184.101 164.41c-11.754 20.346 2.936 45.792 26.434 45.792h-25.023c-23.498 0-38.189-25.446-26.445-45.792l70.495-122.087c8.314-14.412 25.477-18.625 38.952-12.619z" opacity="1" data-original="#f1cb86" class=""/><g fill="#407093"><path d="M256 147.872c-8.534 0-15.453-6.918-15.453-15.453V83.416c0-8.534 6.918-15.453 15.453-15.453 8.534 0 15.453 6.918 15.453 15.453v49.004c0 8.534-6.919 15.452-15.453 15.452zM256 189.08c-8.534 0-15.453-6.918-15.453-15.453 0-8.534 6.918-15.453 15.453-15.453 8.534 0 15.453 6.918 15.453 15.453S264.534 189.08 256 189.08z" fill="#407093" opacity="1" data-original="#407093" class=""/></g></g></svg>