<svg xmlns="http://www.w3.org/2000/svg" version="1.1" xmlns:xlink="http://www.w3.org/1999/xlink" width="132" height="132" x="0" y="0" viewBox="0 0 512 512" style="enable-background:new 0 0 512 512" xml:space="preserve" class=""><g><path fill="#d9b3ff" d="M74.981 74.981C26.629 123.333 0 187.62 0 256s26.629 132.667 74.981 181.02C123.334 485.371 187.62 512 256 512l61.135-272.674L256 0C187.62 0 123.334 26.629 74.981 74.981z" opacity="1" data-original="#d9b3ff"/><path fill="#bb99ff" d="M437.019 74.981C388.667 26.629 324.38 0 256 0v512c68.38 0 132.667-26.629 181.019-74.98C485.371 388.668 512 324.38 512 256s-26.629-132.667-74.981-181.019z" opacity="1" data-original="#bb99ff" class=""/><path fill="#ebf3fe" d="M127.877 127.877C93.654 162.1 74.807 207.602 74.807 256s18.847 93.9 53.071 128.123c34.223 34.223 79.724 53.07 128.123 53.07l43.27-192.995L256 74.807c-48.398 0-93.899 18.847-128.123 53.07z" opacity="1" data-original="#ebf3fe" class=""/><path fill="#d0e4fc" d="M384.123 127.877C349.9 93.654 304.398 74.807 256 74.807v362.387c48.398 0 93.9-18.847 128.123-53.07 34.223-34.224 53.07-79.726 53.07-128.124s-18.847-93.9-53.07-128.123z" opacity="1" data-original="#d0e4fc" class=""/><path fill="#d0e4fc" d="M241.89 387.612v32.104c-79.117-6.762-142.405-69.822-149.524-148.839h31.546v-30H92.39c7.24-78.888 70.473-141.81 149.499-148.564v30.689H256l11.623-30.361L256 61.701c-107.145 0-194.313 87.169-194.313 194.313 0 107.146 87.169 194.314 194.313 194.314l7.66-30.716-7.66-32z" opacity="1" data-original="#d0e4fc" class=""/><path fill="#bacef8" d="M256 61.701v61.302h15.89V92.472c78.195 7.539 140.534 70.11 147.72 148.406h-32.23v30h32.254c-7.066 78.424-69.459 141.133-147.744 148.68v-31.946H256v62.717c107.145 0 194.313-87.169 194.313-194.314S363.145 61.701 256 61.701z" opacity="1" data-original="#bacef8" class=""/><path fill="#674cc3" d="M240.89 171.043v91.237L256 275.859l7.011-54.213L256 171.043z" opacity="1" data-original="#674cc3" class=""/><path fill="#68339f" d="m338.912 310.034-68.022-61.129v-77.862H256v104.816l62.859 56.49z" opacity="1" data-original="#68339f" class=""/><path fill="#ff7d85" d="M0 490.913 21.087 512 256 277.385l11.079-20.828L256 234.587z" opacity="1" data-original="#ff7d85" class=""/><path fill="#fc4555" d="M490.289 0 256 234.587v42.798L512 21.711z" opacity="1" data-original="#fc4555" class=""/></g></svg>